<svg width="28" height="28" viewBox="0 0 28 28" fill="none" xmlns="http://www.w3.org/2000/svg">
<path d="M26 14.072C25.9997 11.7788 25.3424 9.53367 24.1058 7.60245C22.8692 5.67123 21.1051 4.13478 19.0225 3.17498C16.9398 2.21519 14.6257 1.87225 12.3542 2.18677C10.0826 2.50129 7.94878 3.4601 6.20524 4.94968C4.4617 6.43926 3.18149 8.39723 2.51616 10.5918C1.85083 12.7864 1.82825 15.1256 2.45109 17.3326C3.07393 19.5396 4.31611 21.5219 6.03057 23.0449C7.74503 24.5679 9.85996 25.5677 12.125 25.926L12.125 17.541H9.078V14.072H12.125L12.125 11.428C12.125 8.42098 13.917 6.75898 16.657 6.75898C17.5571 6.77189 18.4552 6.8501 19.344 6.99298L19.344 9.94698H17.83C17.3742 9.88648 16.9131 10.0095 16.548 10.2889C16.1829 10.5683 15.9437 10.9813 15.883 11.437C15.8658 11.5646 15.8632 11.6938 15.875 11.822L15.875 14.072H19.2L18.668 17.541H15.868L15.868 25.926C18.692 25.4809 21.2644 24.0423 23.1219 21.8691C24.9795 19.6959 26.0001 16.9309 26 14.072Z" fill="#565D6D"/>
</svg>
