<svg width="28" height="28" viewBox="0 0 28 28" fill="none" xmlns="http://www.w3.org/2000/svg">
<path d="M14 4.982C16.937 4.982 17.285 4.993 18.445 5.046C19.1424 5.05412 19.8332 5.18233 20.487 5.425C20.965 5.60111 21.3973 5.88237 21.752 6.248C22.1176 6.60269 22.3989 7.035 22.575 7.513C22.8177 8.16685 22.9459 8.85762 22.954 9.555C23.007 10.715 23.018 11.063 23.018 14C23.018 16.937 23.007 17.285 22.954 18.445C22.9459 19.1424 22.8177 19.8332 22.575 20.487C22.3919 20.9615 22.1116 21.3924 21.752 21.752C21.3924 22.1116 20.9615 22.3919 20.487 22.575C19.8332 22.8177 19.1424 22.9459 18.445 22.954C17.285 23.007 16.937 23.018 14 23.018C11.063 23.018 10.715 23.007 9.555 22.954C8.85762 22.9459 8.16685 22.8177 7.513 22.575C7.035 22.3989 6.60269 22.1176 6.248 21.752C5.88237 21.3973 5.60111 20.965 5.425 20.487C5.18233 19.8332 5.05412 19.1424 5.046 18.445C4.993 17.285 4.982 16.937 4.982 14C4.982 11.063 4.993 10.715 5.046 9.555C5.05412 8.85762 5.18233 8.16685 5.425 7.513C5.60111 7.035 5.88237 6.60269 6.248 6.248C6.60269 5.88237 7.035 5.60111 7.513 5.425C8.16685 5.18233 8.85762 5.05412 9.555 5.046C10.715 4.993 11.063 4.982 14 4.982ZM14 3C11.013 3 10.638 3.013 9.465 3.066C8.55258 3.08486 7.6499 3.25762 6.795 3.577C6.06355 3.86017 5.3994 4.29319 4.84521 4.84824C4.29102 5.40329 3.85904 6.06811 3.577 6.8C3.25762 7.6549 3.08486 8.55758 3.066 9.47C3.013 10.638 3 11.013 3 14C3 16.987 3.013 17.362 3.066 18.535C3.08486 19.4474 3.25762 20.3501 3.577 21.205C3.86017 21.9365 4.29319 22.6006 4.84824 23.1548C5.40329 23.709 6.06811 24.141 6.8 24.423C7.6549 24.7424 8.55758 24.9151 9.47 24.934C10.638 24.987 11.013 25 14 25C16.987 25 17.362 24.987 18.535 24.934C19.4474 24.9151 20.3501 24.7424 21.205 24.423C21.9365 24.1398 22.6006 23.7068 23.1548 23.1518C23.709 22.5967 24.141 21.9319 24.423 21.2C24.7424 20.3451 24.9151 19.4424 24.934 18.53C24.987 17.362 25 16.987 25 14C25 11.013 24.987 10.638 24.934 9.465C24.9151 8.55258 24.7424 7.6499 24.423 6.795C24.1398 6.06355 23.7068 5.3994 23.1518 4.84521C22.5967 4.29102 21.9319 3.85904 21.2 3.577C20.3451 3.25762 19.4424 3.08486 18.53 3.066C17.362 3.013 16.987 3 14 3Z" fill="#565D6D"/>
<path d="M14.0006 8.35095C12.8833 8.35095 11.7911 8.68226 10.8621 9.30298C9.93318 9.9237 9.20913 10.806 8.78157 11.8382C8.35401 12.8704 8.24214 14.0062 8.46011 15.102C8.67808 16.1978 9.21609 17.2044 10.0061 17.9944C10.7961 18.7844 11.8027 19.3224 12.8985 19.5404C13.9943 19.7584 15.1301 19.6465 16.1623 19.2189C17.1946 18.7914 18.0768 18.0673 18.6975 17.1384C19.3183 16.2094 19.6496 15.1172 19.6496 14C19.6496 12.5017 19.0544 11.0649 17.995 10.0055C16.9356 8.94611 15.4988 8.35095 14.0006 8.35095ZM14.0006 17.667C13.2753 17.667 12.5663 17.4519 11.9633 17.049C11.3603 16.646 10.8902 16.0733 10.6127 15.4033C10.3352 14.7332 10.2625 13.9959 10.404 13.2846C10.5455 12.5732 10.8948 11.9198 11.4076 11.407C11.9204 10.8942 12.5738 10.5449 13.2852 10.4034C13.9965 10.2619 14.7338 10.3345 15.4039 10.6121C16.0739 10.8896 16.6466 11.3596 17.0496 11.9627C17.4525 12.5657 17.6676 13.2747 17.6676 14C17.6676 14.9725 17.2812 15.9052 16.5935 16.5929C15.9058 17.2806 14.9731 17.667 14.0006 17.667Z" fill="#565D6D"/>
<path d="M19.8727 9.44798C20.6017 9.44798 21.1927 8.857 21.1927 8.12798C21.1927 7.39897 20.6017 6.80798 19.8727 6.80798C19.1437 6.80798 18.5527 7.39897 18.5527 8.12798C18.5527 8.857 19.1437 9.44798 19.8727 9.44798Z" fill="#565D6D"/>
</svg>
