<svg width="36" height="36" viewBox="0 0 36 36" fill="none" xmlns="http://www.w3.org/2000/svg">
<path fill-rule="evenodd" clip-rule="evenodd" d="M18.9411 1.78723C18.3383 1.53756 17.661 1.53756 17.0582 1.78723L7.20115 5.87017C6.59837 6.11982 6.11949 6.59874 5.8698 7.20148L1.78687 17.0585C1.53719 17.6613 1.53719 18.3386 1.78687 18.9413L5.8698 28.7984C6.11949 29.4012 6.59837 29.8801 7.20115 30.1297L17.0582 34.2126C17.661 34.4623 18.3383 34.4623 18.9411 34.2126L28.7981 30.1297C29.4009 29.8801 29.8798 29.4012 30.1295 28.7984L34.2124 18.9413C34.4621 18.3386 34.4621 17.6613 34.2124 17.0585L30.1295 7.20148C29.8798 6.59874 29.4009 6.11982 28.7981 5.87017L18.9411 1.78723ZM18.7803 15.4593L20.3041 8.99072C20.3602 8.75243 20.1795 8.5241 19.9346 8.5241H15.9478C15.7029 8.5241 15.5221 8.75243 15.5783 8.99072L17.102 15.4593C17.1553 15.6856 16.8504 15.8118 16.7282 15.6142L13.2316 9.96275C13.1028 9.75455 12.8135 9.72093 12.6404 9.89407L9.82126 12.7131C9.64816 12.8863 9.68178 13.1755 9.88997 13.3044L15.5414 16.8009C15.739 16.9232 15.6128 17.2281 15.3865 17.1748L8.9179 15.651C8.67961 15.5949 8.45128 15.7757 8.45128 16.0205V20.0073C8.45128 20.2522 8.67961 20.433 8.9179 20.3768L15.3865 18.8531C15.6127 18.7998 15.739 19.1047 15.5413 19.227L9.88997 22.7234C9.68178 22.8523 9.64816 23.1416 9.82126 23.3146L12.6404 26.1338C12.8135 26.3069 13.1028 26.2733 13.2316 26.0651L16.7282 20.4137C16.8504 20.216 17.1553 20.3423 17.102 20.5685L15.5783 27.0372C15.5221 27.2754 15.7029 27.5038 15.9478 27.5038H19.9346C20.1793 27.5038 20.3602 27.2754 20.3041 27.0372L18.7803 20.5686C18.727 20.3423 19.0319 20.216 19.1542 20.4137L22.6507 26.0651C22.7796 26.2733 23.0688 26.3069 23.2419 26.1338L26.0611 23.3148C26.2342 23.1416 26.2006 22.8523 25.9924 22.7235L20.3409 19.2269C20.1433 19.1046 20.2695 18.7998 20.4958 18.8531L26.9644 20.3768C27.2027 20.433 27.431 20.2522 27.431 20.0073V16.0205C27.431 15.7757 27.2027 15.5949 26.9644 15.651L20.4958 17.1748C20.2696 17.2281 20.1433 16.9232 20.341 16.8009L25.9924 13.3044C26.2006 13.1755 26.2342 12.8863 26.0611 12.7131L23.2419 9.89403C23.0688 9.72093 22.7796 9.75455 22.6507 9.96275L19.1542 15.6141C19.0319 15.8118 18.727 15.6855 18.7803 15.4593ZM19.0258 18.0139C19.0258 18.6129 18.5402 19.0985 17.9411 19.0985C17.3422 19.0985 16.8566 18.6129 16.8566 18.0139C16.8566 17.4149 17.3422 16.9294 17.9411 16.9294C18.5402 16.9294 19.0258 17.4149 19.0258 18.0139Z" fill="#F08F11"/>
</svg>
