<svg width="28" height="28" viewBox="0 0 28 28" fill="none" xmlns="http://www.w3.org/2000/svg">
<path d="M23 4L5 4C4.20435 4 3.44129 4.31607 2.87868 4.87868C2.31607 5.44129 2 6.20435 2 7L2 21C2 21.7956 2.31607 22.5587 2.87868 23.1213C3.44129 23.6839 4.20435 24 5 24L23 24C23.7956 24 24.5587 23.6839 25.1213 23.1213C25.6839 22.5587 26 21.7956 26 21L26 7C26 6.20435 25.6839 5.44129 25.1213 4.87868C24.5587 4.31607 23.7956 4 23 4ZM22.7 8.8L14.7 15.8C14.4822 15.9123 14.2443 15.9803 14 16C13.7557 15.9803 13.5178 15.9123 13.3 15.8L5.3 8.8C5.10109 8.62761 4.9788 8.38326 4.96005 8.12071C4.9413 7.85816 5.02761 7.59891 5.2 7.4C5.37239 7.20109 5.61674 7.0788 5.87929 7.06005C6.14184 7.0413 6.40109 7.12761 6.6 7.3L13.9 13.7L21.2 7.3C21.2972 7.21203 21.4113 7.14465 21.5352 7.1019C21.6592 7.05916 21.7905 7.04194 21.9213 7.05128C22.0521 7.06062 22.1797 7.09633 22.2963 7.15626C22.4129 7.21619 22.5162 7.2991 22.6 7.4C22.7108 7.47664 22.8029 7.57716 22.8697 7.69417C22.9364 7.81117 22.9761 7.94166 22.9857 8.07602C22.9953 8.21038 22.9746 8.34519 22.9251 8.47049C22.8757 8.59579 22.7988 8.7084 22.7 8.8Z" fill="#F08F11"/>
</svg>
