<svg width="28" height="28" viewBox="0 0 28 28" fill="none" xmlns="http://www.w3.org/2000/svg">
<path d="M24.121 12.706L14.706 3.293C14.5188 3.1057 14.2648 3.00032 14 3L4 3C3.73478 3 3.48043 3.10536 3.29289 3.29289C3.10536 3.48043 3 3.73478 3 4L3 14C3.00006 14.2652 3.10545 14.5195 3.293 14.707L12.706 24.122C12.9846 24.4006 13.3153 24.6217 13.6793 24.7724C14.0433 24.9232 14.4335 25.0009 14.8275 25.0009C15.2215 25.0009 15.6117 24.9232 15.9757 24.7724C16.3397 24.6217 16.6704 24.4006 16.949 24.122L24.121 16.95C24.3996 16.6714 24.6207 16.3407 24.7715 15.9767C24.9222 15.6127 24.9999 15.2225 24.9999 14.8285C24.9999 14.4345 24.9222 14.0443 24.7715 13.6803C24.6207 13.3163 24.3996 12.9846 24.121 12.706ZM10 12C9.60444 12 9.21776 11.8827 8.88886 11.6629C8.55996 11.4432 8.30362 11.1308 8.15224 10.7654C8.00087 10.3999 7.96126 9.99778 8.03843 9.60982C8.1156 9.22186 8.30608 8.86549 8.58579 8.58579C8.86549 8.30608 9.22186 8.1156 9.60982 8.03843C9.99778 7.96126 10.3999 8.00087 10.7654 8.15224C11.1308 8.30362 11.4432 8.55996 11.6629 8.88886C11.8827 9.21776 12 9.60444 12 10C12 10.5304 11.7893 11.0391 11.4142 11.4142C11.0391 11.7893 10.5304 12 10 12Z" fill="#565D6D"/>
</svg>
