<svg width="28" height="28" viewBox="0 0 28 28" fill="none" xmlns="http://www.w3.org/2000/svg">
<path d="M26 6.59999C25.1 6.99999 24.2 7.29999 23.2 7.39999C24.2 6.79999 25 5.79999 25.4 4.69999C24.4 5.29999 23.4 5.69999 22.3 5.89999C21.4 4.89999 20.1 4.29999 18.7 4.29999C16 4.29999 13.8 6.49999 13.8 9.19999C13.8 9.59999 13.8 9.99999 13.9 10.3C9.7 10.1 6.1 8.09999 3.7 5.09999C3.2 5.89999 3 6.69999 3 7.59999C3 9.29999 3.9 10.8 5.2 11.7C4.4 11.7 3.6 11.5 3 11.1C3 11.1 3 11.1 3 11.2C3 13.6 4.7 15.6 6.9 16C6.5 16.1 6.1 16.2 5.6 16.2C5.3 16.2 5 16.2 4.7 16.1C5.3 18.1 7.1 19.5 9.3 19.5C7.6 20.8 5.5 21.6 3.2 21.6C2.8 21.6 2.4 21.6 2 21.5C4.2 22.9 6.8 23.7 9.5 23.7C18.6 23.7 23.5 16.2 23.5 9.69999C23.5 9.49999 23.5 9.29999 23.5 9.09999C24.5 8.39999 25.3 7.49999 26 6.59999Z" fill="#565D6D"/>
</svg>
